<svg width="128" height="58" viewBox="0 0 128 58" fill="none" xmlns="http://www.w3.org/2000/svg">
<path d="M8.11661 20.2265C5.75084 20.2265 3.93037 19.6518 2.6552 18.5025C1.35487 17.3784 0.641778 15.8138 0.51594 13.8087H4.61829C4.69379 14.7399 5.04614 15.4446 5.67534 15.9228C6.28775 16.4094 7.10151 16.6527 8.11661 16.6527C10.3649 16.6527 11.4891 16.0319 11.4891 14.7903C11.4891 14.2869 11.3255 13.8842 10.9983 13.5822C10.6628 13.297 10.0965 13.0663 9.2995 12.8901L6.66946 12.3238C4.88255 11.9295 3.5193 11.3255 2.5797 10.5117C1.59815 9.71477 1.10738 8.5151 1.10738 6.91275C1.10738 5.38591 1.75336 4.1401 3.0453 3.17534C4.33725 2.21057 6.03607 1.72819 8.14178 1.72819C10.2223 1.72819 11.9421 2.27769 13.3012 3.37668C14.6351 4.48406 15.3146 5.89346 15.3398 7.60487H11.2374C11.1871 6.96728 10.9018 6.42618 10.3817 5.98154C9.85319 5.55369 9.08976 5.33977 8.09144 5.33977C7.10151 5.33977 6.38842 5.49497 5.95218 5.80537C5.49077 6.11577 5.26007 6.4849 5.26007 6.91275C5.26007 7.28188 5.40688 7.61326 5.7005 7.90688C5.96896 8.17534 6.50168 8.40185 7.29866 8.58641L9.73993 9.10235C11.6275 9.48826 13.0789 10.1049 14.094 10.9522C15.1258 11.8079 15.6418 13.0537 15.6418 14.6896C15.6418 16.401 15.0336 17.7517 13.8171 18.7416C12.6258 19.7315 10.7257 20.2265 8.11661 20.2265ZM19.5805 5.15101C18.8087 5.15101 18.2173 4.94547 17.8062 4.5344C17.3951 4.14849 17.1896 3.58222 17.1896 2.83557C17.1896 2.1141 17.3951 1.54782 17.8062 1.13675C18.2257 0.742451 18.8171 0.545303 19.5805 0.545303C20.3188 0.545303 20.9102 0.742451 21.3549 1.13675C21.7743 1.55621 21.9841 2.12248 21.9841 2.83557C21.9841 3.54866 21.7743 4.11493 21.3549 4.5344C20.9186 4.94547 20.3272 5.15101 19.5805 5.15101ZM17.5671 20V6.52265H21.5436V20H17.5671ZM29.7357 26.1284C27.9069 26.1284 26.4388 25.6753 25.3314 24.7693C24.2072 23.8465 23.6325 22.6426 23.6074 21.1577H27.4958C27.5461 21.6275 27.7768 22.005 28.1879 22.2903C28.6074 22.5839 29.1233 22.7307 29.7357 22.7307C30.5747 22.7307 31.229 22.5336 31.6988 22.1393C32.1435 21.745 32.3658 21.229 32.3658 20.5914V18.7164H32.2651C31.4094 19.7232 30.2139 20.2265 28.6787 20.2265C27.0092 20.2265 25.6879 19.5763 24.7148 18.276C23.7164 17.0008 23.2173 15.3314 23.2173 13.2676C23.2173 11.2039 23.7164 9.52181 24.7148 8.22148C25.7047 6.92953 27.026 6.28356 28.6787 6.28356C30.2055 6.28356 31.401 6.79111 32.2651 7.80621H32.3658L32.781 6.52265H36.3423V20.6418C36.3423 22.2945 35.7215 23.6284 34.4799 24.6435C33.2634 25.6334 31.682 26.1284 29.7357 26.1284ZM27.2441 13.2676C27.2441 15.5914 28.1292 16.7534 29.8993 16.7534C31.6695 16.7534 32.5545 15.5914 32.5545 13.2676C32.5545 12.2273 32.3364 11.3884 31.9002 10.7508C31.4471 10.0965 30.7802 9.7693 29.8993 9.7693C29.0101 9.7693 28.3389 10.0965 27.8859 10.7508C27.4581 11.3716 27.2441 12.2106 27.2441 13.2676ZM38.6577 20V6.52265H42.219L42.5336 7.80621H42.6342C43.4983 6.79111 44.7273 6.28356 46.3213 6.28356C47.8314 6.28356 49.0394 6.72399 49.9455 7.60487C50.8599 8.49413 51.3171 9.66862 51.3171 11.1284V20H47.3532V12.3742C47.3532 10.7215 46.594 9.89513 45.0755 9.89513C44.3456 9.89513 43.7626 10.1258 43.3263 10.5872C42.8649 11.0738 42.6342 11.7198 42.6342 12.5252V20H38.6577ZM59.6728 20.2265C57.6174 20.2265 55.9941 19.568 54.8029 18.2508C53.5948 16.9421 52.9908 15.281 52.9908 13.2676C52.9908 11.2374 53.5654 9.57215 54.7148 8.27181C55.8893 6.94631 57.5126 6.28356 59.5847 6.28356C61.5646 6.28356 63.1376 6.90436 64.3037 8.14597C65.453 9.39597 66.0277 10.969 66.0277 12.8649V14.3247H57.0428C57.068 15.1636 57.2903 15.818 57.7097 16.2878C58.1376 16.7659 58.7919 17.005 59.6728 17.005C60.8976 17.005 61.6778 16.5604 62.0134 15.6711H65.8515C65.6753 16.9463 65.0419 18.0285 63.9513 18.9178C62.8523 19.7903 61.4262 20.2265 59.6728 20.2265ZM57.068 11.8331H61.9883C61.9631 11.1703 61.7492 10.6124 61.3465 10.1594C60.9354 9.74832 60.3482 9.54279 59.5847 9.54279C58.7794 9.54279 58.1711 9.74832 57.7601 10.1594C57.3238 10.5956 57.0931 11.1535 57.068 11.8331ZM67.953 20V6.52265H71.2626L71.5646 8.48574H71.6653C72.3783 7.01762 73.5319 6.28356 75.1258 6.28356H76.0445V9.9203H74.7609C73.8213 9.9203 73.0747 10.2223 72.521 10.8263C71.9505 11.4471 71.6653 12.2903 71.6653 13.3557V20H67.953ZM85.193 20V0.92282H89.1695V20H85.193ZM97.5252 20.2265C95.4698 20.2265 93.8465 19.568 92.6552 18.2508C91.4471 16.9421 90.8431 15.281 90.8431 13.2676C90.8431 11.2374 91.4178 9.57215 92.5671 8.27181C93.7416 6.94631 95.3649 6.28356 97.4371 6.28356C99.4169 6.28356 100.99 6.90436 102.156 8.14597C103.305 9.39597 103.88 10.969 103.88 12.8649V14.3247H94.8951C94.9203 15.1636 95.1426 15.818 95.5621 16.2878C95.9899 16.7659 96.6443 17.005 97.5252 17.005C98.75 17.005 99.5302 16.5604 99.8658 15.6711H103.704C103.528 16.9463 102.894 18.0285 101.804 18.9178C100.705 19.7903 99.2785 20.2265 97.5252 20.2265ZM94.9203 11.8331H99.8406C99.8154 11.1703 99.6015 10.6124 99.1988 10.1594C98.7877 9.74832 98.2005 9.54279 97.4371 9.54279C96.6317 9.54279 96.0235 9.74832 95.6124 10.1594C95.1762 10.5956 94.9455 11.1535 94.9203 11.8331Z" fill="black"/>
<path d="M1.28356 52V38.5227H4.8448L5.1594 39.8062H5.26007C6.12416 38.7911 7.35319 38.2836 8.94715 38.2836C10.4572 38.2836 11.6653 38.724 12.5713 39.6049C13.4857 40.4941 13.943 41.6686 13.943 43.1284V52H9.97903V44.3742C9.97903 42.7215 9.2198 41.8951 7.70134 41.8951C6.97148 41.8951 6.38842 42.1258 5.95218 42.5872C5.49077 43.0738 5.26007 43.7198 5.26007 44.5252V52H1.28356ZM24.6393 38.5227H28.6032V46.6141C28.6032 48.1913 28.0998 49.521 27.0931 50.6032C26.0612 51.6854 24.5134 52.2265 22.4497 52.2265H22.4245C20.3523 52.2265 18.8129 51.6854 17.8062 50.6032C16.7743 49.521 16.2584 48.1913 16.2584 46.6141V38.5227H20.2349V46.0227C20.2349 47.6669 20.9732 48.4891 22.4497 48.4891C23.9094 48.4891 24.6393 47.6669 24.6393 46.0227V38.5227ZM46.9631 38.2836C48.4815 38.2836 49.6938 38.724 50.5998 39.6049C51.5059 40.4857 51.9589 41.6602 51.9589 43.1284V52H47.995V44.3742C47.995 42.7215 47.2903 41.8951 45.8809 41.8951C45.1678 41.8951 44.6183 42.1258 44.2324 42.5872C43.8381 43.0822 43.6409 43.7282 43.6409 44.5252V52H39.7148V44.3742C39.7148 42.7215 39.0101 41.8951 37.6007 41.8951C36.8708 41.8951 36.2877 42.1258 35.8515 42.5872C35.3901 43.0738 35.1594 43.7198 35.1594 44.5252V52H31.1829V38.5227H34.7441L35.0587 39.8062H35.1594C36.0235 38.7911 37.2525 38.2836 38.8465 38.2836C40.6837 38.2836 42.0218 38.896 42.8607 40.1208H42.9362C43.9094 38.896 45.2517 38.2836 46.9631 38.2836ZM58.5151 36.9748V36.7232L60.2139 32.9606H64.3414V33.2122L61.3591 36.9748H58.5151ZM60.3272 52.2265C58.2718 52.2265 56.6485 51.568 55.4572 50.2508C54.2492 48.9421 53.6451 47.281 53.6451 45.2676C53.6451 43.2374 54.2198 41.5721 55.3691 40.2718C56.5436 38.9463 58.1669 38.2836 60.2391 38.2836C62.219 38.2836 63.7919 38.9044 64.9581 40.146C66.1074 41.396 66.682 42.969 66.682 44.8649V46.3247H57.6971C57.7223 47.1636 57.9446 47.818 58.3641 48.2878C58.7919 48.7659 59.4463 49.005 60.3272 49.005C61.552 49.005 62.3322 48.5604 62.6678 47.6711H66.5059C66.3297 48.9463 65.6963 50.0285 64.6057 50.9178C63.5067 51.7903 62.0805 52.2265 60.3272 52.2265ZM57.7223 43.8331H62.6426C62.6174 43.1703 62.4035 42.6124 62.0008 42.1594C61.5898 41.7483 61.0025 41.5428 60.2391 41.5428C59.4337 41.5428 58.8255 41.7483 58.4144 42.1594C57.9782 42.5956 57.7475 43.1535 57.7223 43.8331ZM68.6074 52V38.5227H71.9169L72.219 40.4857H72.3196C73.0327 39.0176 74.1862 38.2836 75.7802 38.2836H76.6988V41.9203H75.4153C74.4757 41.9203 73.729 42.2223 73.1753 42.8263C72.6049 43.4471 72.3196 44.2903 72.3196 45.3557V52H68.6074ZM80.6376 37.151C79.8658 37.151 79.2743 36.9455 78.8632 36.5344C78.4522 36.1485 78.2466 35.5822 78.2466 34.8356C78.2466 34.1141 78.4522 33.5478 78.8632 33.1367C79.2827 32.7425 79.8742 32.5453 80.6376 32.5453C81.3758 32.5453 81.9673 32.7425 82.4119 33.1367C82.8314 33.5562 83.0411 34.1225 83.0411 34.8356C83.0411 35.5487 82.8314 36.1149 82.4119 36.5344C81.9757 36.9455 81.3842 37.151 80.6376 37.151ZM78.6242 52V38.5227H82.6007V52H78.6242ZM93.4228 57.9018V50.7164H93.3221C92.4664 51.7232 91.271 52.2265 89.7357 52.2265C88.0663 52.2265 86.745 51.5763 85.7718 50.276C84.7735 49.0008 84.2743 47.3314 84.2743 45.2676C84.2743 43.2039 84.7735 41.5218 85.7718 40.2215C86.7617 38.9295 88.083 38.2836 89.7357 38.2836C91.2626 38.2836 92.458 38.7911 93.3221 39.8062H93.4228L93.8381 38.5227H97.3993V57.9018H93.4228ZM88.3012 45.2676C88.3012 47.5914 89.1862 48.7534 90.9564 48.7534C92.7265 48.7534 93.6116 47.5914 93.6116 45.2676C93.6116 44.2273 93.3935 43.3884 92.9572 42.7508C92.5042 42.0965 91.8372 41.7693 90.9564 41.7693C90.0671 41.7693 89.396 42.0965 88.9429 42.7508C88.5151 43.3716 88.3012 44.2106 88.3012 45.2676ZM108.096 38.5227H112.06V46.6141C112.06 48.1913 111.556 49.521 110.549 50.6032C109.518 51.6854 107.97 52.2265 105.906 52.2265H105.881C103.809 52.2265 102.269 51.6854 101.263 50.6032C100.231 49.521 99.7148 48.1913 99.7148 46.6141V38.5227H103.691V46.0227C103.691 47.6669 104.43 48.4891 105.906 48.4891C107.366 48.4891 108.096 47.6669 108.096 46.0227V38.5227ZM120.68 52.2265C118.624 52.2265 117.001 51.568 115.81 50.2508C114.602 48.9421 113.997 47.281 113.997 45.2676C113.997 43.2374 114.572 41.5721 115.721 40.2718C116.896 38.9463 118.519 38.2836 120.591 38.2836C122.571 38.2836 124.144 38.9044 125.31 40.146C126.46 41.396 127.034 42.969 127.034 44.8649V46.3247H118.049C118.075 47.1636 118.297 47.818 118.716 48.2878C119.144 48.7659 119.799 49.005 120.68 49.005C121.904 49.005 122.685 48.5604 123.02 47.6711H126.858C126.682 48.9463 126.049 50.0285 124.958 50.9178C123.859 51.7903 122.433 52.2265 120.68 52.2265ZM118.075 43.8331H122.995C122.97 43.1703 122.756 42.6124 122.353 42.1594C121.942 41.7483 121.355 41.5428 120.591 41.5428C119.786 41.5428 119.178 41.7483 118.767 42.1594C118.331 42.5956 118.1 43.1535 118.075 43.8331Z" fill="#0041E8"/>
</svg>
